<?xml version="1.0" encoding="UTF-8"?>
<svg id="background_white" data-name="background white" xmlns="http://www.w3.org/2000/svg" viewBox="0 0 640 250">
  <defs>
    <style>
      .cls-1 {
        fill: #f60;
      }

      .cls-1, .cls-2 {
        stroke-width: 0px;
      }

      .cls-2 {
        fill: #fff;
      }
    </style>
  </defs>
  <rect class="cls-2" width="640" height="250"/>
  <g>
    <path class="cls-1" d="M201.76,200.07v42.66h37.35c-18.14-10.33-30.96-26.03-37.35-42.66Z"/>
    <path class="cls-1" d="M358.49,155.58c-.05-39.42-31.69-77.37-79.24-79.02-33.69-1.16-59.9,11.19-77.48,29.45v41.16c11.95-34.53,44.89-50.37,72.49-50.09,34.48.35,61.07,26.35,61.23,55.74.15,28.09-11.62,48.78-43.38,53.87-17.32,2.78-44.42-7.38-43.22-33.54.62-13.49,11.13-21.11,23.17-20.56-11.78,15.79,3.82,27.36,14.85,25,13.65-2.92,19.21-15.04,19.21-24.44,0-9.92-9.35-25.94-32.55-25.39-28.71.68-46.77,21.33-47.38,46.86-.77,32.15,29.31,53.28,60.17,53.66,45.32.56,72.2-29.16,72.14-72.7Z"/>
    <path class="cls-1" d="M201.76,8.26v67.46c20.16-15.48,46.41-25.49,77.48-25.47,66.53.04,108.77,46.52,108.75,105.17-.01,40.74-19.03,71.38-48.79,87.32h97.03V8.26h-234.47Z"/>
  </g>
</svg>